<svg id="svg2" xmlns="http://www.w3.org/2000/svg" viewBox="0 0 54.79 47.85">
    <defs>
        <style>.cls-1,.cls-2{fill:#fff;}.cls-2{fill-rule:evenodd;}</style>
    </defs>
    <title>logo</title>
    <path class="cls-1"
          d="M29.29,28.63H24.76l9-9-6.41-6.4L15.06,25.53H1.6L0,23.92l1.6-1.6H13.74L27.4,8.66,38.33,19.59Zm-4.19-.14h4.14l8.9-8.9L27.4,8.85,13.79,22.46H1.66L0.19,23.92l1.47,1.47H15L27.4,13,34,19.59l0,0Z"/>
    <path class="cls-1"
          d="M27.4,39.19L16.46,28.26l9-9H30l-9,9,6.4,6.4L39.73,22.33H53.2l1.6,1.6-1.6,1.6H41.06ZM16.66,28.26L27.4,39,41,25.39H53.14l1.46-1.47-1.46-1.46H39.79L27.4,34.85,20.8,28.26l8.9-8.9H25.57Z"/>
    <path class="cls-1"
          d="M27.4,47.85l-20-20H12L27.4,43.32,42.84,27.88h4.52ZM7.75,28L27.4,47.66,47,28H42.9L27.4,43.52,11.9,28H7.75Z"/>
    <path class="cls-1"
          d="M47.37,20H42.84L27.4,4.52,12,20H7.42l20-20Zm-4.47-.14H47L27.4,0.19,7.75,19.84H11.9L27.4,4.33Z"/>
    <polygon class="cls-2"
             points="27.4 12.66 34.33 19.59 25.66 28.26 25.66 28.26 25.66 28.26 29.13 28.26 37.8 19.59 27.4 9.19 13.89 22.7 1.75 22.7 0.53 23.92 1.75 25.15 14.9 25.15 27.4 12.66"/>
    <polygon class="cls-2"
             points="27.4 3.99 42.99 19.59 42.99 19.59 46.46 19.59 46.46 19.59 30.86 3.99 27.4 0.53 27.4 0.53 23.93 3.99 8.33 19.59 11.8 19.59 27.4 3.99"/>
    <polygon class="cls-2"
             points="53.04 22.7 39.89 22.7 38.66 23.92 37.44 25.15 27.4 35.18 27.4 35.19 20.47 28.26 29.13 19.59 29.13 19.59 25.66 19.59 17 28.26 17 28.26 27.4 38.66 30.87 35.19 37.8 28.26 37.8 28.26 40.9 25.15 53.04 25.15 54.26 23.92 53.04 22.7"/>
    <polyline class="cls-2"
              points="46.46 28.26 42.99 28.26 27.4 43.86 11.8 28.26 8.33 28.26 23.93 43.86 27.4 47.33 27.4 47.33"/>
</svg>